<svg width="277" height="32" viewBox="0 0 277 32" fill="none" xmlns="http://www.w3.org/2000/svg">
<path d="M0.240123 31.5594H6.63338V9.00229H0.240123V31.5594ZM3.45176 6.32951C5.31271 6.32951 6.91853 4.94906 6.91853 3.15741C6.91853 1.38045 5.31271 0 3.45176 0C1.60582 0 0 1.38045 0 3.15741C0 4.94906 1.60582 6.32951 3.45176 6.32951Z" fill="#212126"/>
<path d="M11.7547 31.5594H18.148V18.0193C18.148 15.5227 19.7688 13.8632 21.8999 13.8632C24.001 13.8632 25.4117 15.2731 25.4117 17.4906V31.5594H31.6099V17.7843C31.6099 15.4493 32.9756 13.8632 35.3018 13.8632C37.3428 13.8632 38.8736 15.1115 38.8736 17.6228V31.5594H45.2518V16.3892C45.2518 11.4989 42.2803 8.70858 37.9881 8.70858C34.6114 8.70858 31.9851 10.3974 31.0396 12.9821H30.7995C30.0641 10.3681 27.7079 8.70858 24.5413 8.70858C21.4347 8.70858 19.0785 10.324 18.118 12.9821H17.8479V9.00229H11.7547V31.5594Z" fill="#212126"/>
<path d="M50.3019 31.5594H56.6952V18.7976C56.7102 16.0367 58.7512 14.1423 61.3325 14.1423C62.203 14.1423 62.9083 14.3772 63.5086 14.671L65.4296 9.50161C64.5892 9.0023 63.5086 8.67921 62.278 8.67921C59.6817 8.67921 57.5806 10.1478 56.7402 12.938H56.5001V9.00229H50.3019V31.5594Z" fill="#212126"/>
<path d="M74.3329 31.9853C77.7396 31.9853 79.9458 30.5314 81.0713 28.4314H81.2514V31.5594H87.3145V16.3451C87.3145 10.9702 82.6171 8.70858 77.6346 8.70858C71.9617 8.70858 68.3749 11.2933 67.4894 15.4052L73.4024 15.8752C73.8377 14.3772 75.2034 13.2758 77.4995 13.2758C79.7056 13.2758 80.9063 14.3332 80.9213 16.2276C80.9363 17.7109 79.3455 17.9312 75.3384 18.313C70.7761 18.7242 66.679 20.2221 66.679 25.2593C66.679 29.7237 69.9357 31.9853 74.3329 31.9853ZM76.1638 27.6677C74.1978 27.6677 72.7871 26.7719 72.7871 25.0537C72.7871 23.2914 74.2729 22.425 76.524 22.1166C77.9197 21.9257 80.2009 21.6026 80.9663 21.1033V23.497C80.9663 25.8614 78.9703 27.6677 76.1638 27.6677Z" fill="#212126"/>
<path d="M104.881 9.00229H100.304V7.48968C100.304 5.96237 100.934 5.06655 102.81 5.06655C103.575 5.06655 104.356 5.22809 104.866 5.38963L105.992 0.690226C105.196 0.455256 103.44 0.0734279 101.474 0.0734279C97.137 0.0734279 93.9104 2.46719 93.9104 7.37219V9.00229H90.6537V13.7017H93.9104V31.5594H100.304V13.7017H104.881V9.00229Z" fill="#212126"/>
<path d="M114.407 31.9853C117.814 31.9853 120.02 30.5314 121.146 28.4314H121.326V31.5594H127.389V16.3451C127.389 10.9702 122.691 8.70858 117.709 8.70858C112.036 8.70858 108.449 11.2933 107.564 15.4052L113.477 15.8752C113.912 14.3772 115.278 13.2758 117.574 13.2758C119.78 13.2758 120.98 14.3332 120.995 16.2276C121.01 17.7109 119.42 17.9312 115.413 18.313C110.85 18.7242 106.753 20.2221 106.753 25.2593C106.753 29.7237 110.01 31.9853 114.407 31.9853ZM116.238 27.6677C114.272 27.6677 112.861 26.7719 112.861 25.0537C112.861 23.2914 114.347 22.425 116.598 22.1166C117.994 21.9257 120.275 21.6026 121.04 21.1033V23.497C121.04 25.8614 119.044 27.6677 116.238 27.6677Z" fill="#212126"/>
<path d="M142.854 32C148.557 32 152.399 29.2832 153.299 25.0978L147.386 24.7159C146.741 26.4341 145.09 27.33 142.959 27.33C139.763 27.33 137.736 25.2593 137.736 21.8963V21.8816H153.434V20.1634C153.434 12.4975 148.692 8.70858 142.599 8.70858C135.816 8.70858 131.418 13.4227 131.418 20.3837C131.418 27.5356 135.755 32 142.854 32ZM137.736 18.0046C137.872 15.4346 139.868 13.3786 142.704 13.3786C145.48 13.3786 147.401 15.3171 147.416 18.0046H137.736Z" fill="#212126"/>
<path d="M164 1.48325H157.607V31.5594H164V1.48325Z" fill="#212126"/>
<path d="M181.728 9.00229H177.15V7.48968C177.15 5.96237 177.781 5.06655 179.657 5.06655C180.422 5.06655 181.202 5.22809 181.713 5.38963L182.838 0.690226C182.043 0.455256 180.287 0.0734279 178.321 0.0734279C173.984 0.0734279 170.757 2.46719 170.757 7.37219V9.00229H167.5V13.7017H170.757V31.5594H177.15V13.7017H181.728V9.00229Z" fill="#212126"/>
<path d="M185.63 31.5594H192.023V18.7976C192.038 16.0367 194.079 14.1423 196.66 14.1423C197.531 14.1423 198.236 14.3772 198.836 14.671L200.757 9.50161C199.917 9.0023 198.836 8.67921 197.606 8.67921C195.009 8.67921 192.908 10.1478 192.068 12.938H191.828V9.00229H185.63V31.5594Z" fill="#212126"/>
<path d="M213.09 32C220.083 32 224.436 27.3153 224.436 20.369C224.436 13.3786 220.083 8.70858 213.09 8.70858C206.096 8.70858 201.744 13.3786 201.744 20.369C201.744 27.3153 206.096 32 213.09 32ZM213.12 27.1537C209.893 27.1537 208.242 24.2607 208.242 20.3249C208.242 16.3892 209.893 13.4814 213.12 13.4814C216.287 13.4814 217.937 16.3892 217.937 20.3249C217.937 24.2607 216.287 27.1537 213.12 27.1537Z" fill="#212126"/>
<path d="M240.854 9.00229H236.517V3.59798H230.124V9.00229H226.972V13.7017H230.124V25.4061C230.094 29.8118 233.17 32 237.808 31.8238C239.458 31.7503 240.629 31.4273 241.274 31.2363L240.269 26.5663C239.954 26.6397 239.278 26.7719 238.678 26.7719C237.402 26.7719 236.472 26.302 236.517 24.5691V13.7017H240.854V9.00229Z" fill="#212126"/>
<path d="M251.675 31.9853C255.081 31.9853 257.287 30.5314 258.413 28.4314H258.593V31.5594H264.656V16.3451C264.656 10.9702 259.959 8.70858 254.976 8.70858C249.303 8.70858 245.717 11.2933 244.831 15.4052L250.744 15.8752C251.179 14.3772 252.545 13.2758 254.841 13.2758C257.047 13.2758 258.248 14.3332 258.263 16.2276C258.278 17.7109 256.687 17.9312 252.68 18.313C248.118 18.7242 244.021 20.2221 244.021 25.2593C244.021 29.7237 247.277 31.9853 251.675 31.9853ZM253.506 27.6677C251.54 27.6677 250.129 26.7719 250.129 25.0537C250.129 23.2914 251.615 22.425 253.866 22.1166C255.261 21.9257 257.543 21.6026 258.308 21.1033V23.497C258.308 25.8614 256.312 27.6677 253.506 27.6677Z" fill="#212126"/>
<path d="M273.353 31.9413C275.304 31.9413 276.97 30.3699 277 28.4167C276.97 26.5076 275.304 24.9509 273.353 24.9509C271.387 24.9509 269.736 26.4782 269.751 28.4167C269.736 30.3699 271.372 31.9413 273.353 31.9413Z" fill="#212126"/>
</svg>
